<svg
    xmlns="http://www.w3.org/2000/svg"
    version="1.1"
    x="0px"
    y="0px"
    viewBox="0 0 100 125"
    xmlSpace="preserve"
  >
    <g fill="#23a965">
      <path d="M70.3,11.3h-9.6v-7c0-1-0.8-1.7-1.7-1.7H41.1c-1,0-1.7,0.8-1.7,1.7v7h-9.6c-4.5,0-8.1,3.6-8.1,8.1v70c0,4.5,3.7,8.1,8.1,8.1h40.5c4.5,0,8.1-3.6,8.1-8.1v-70C78.4,14.9,74.8,11.3,70.3,11.3z M61.2,58.9h-5.4v16.5c0,2.1-2.7,2.9-3.8,1.2L36.7,53.8c-1.1-1.7,0.1-3.9,2.1-3.9h5.4V33.4c0-2.1,2.7-2.9,3.8-1.2l15.4,22.7C64.5,56.6,63.3,58.9,61.2,58.9z" />
    </g>
  </svg>